	Garfield - The Movie [Eng][XviD][2004]



Also Known As (AKA)
Garfield Hungary / Slovakia / Turkey (Turkish title)
Garfield, le film Canada (French title) / France
Gustaf Finland (Swedish title) / Sweden
Гарфилд Russia
Filmen om Gustaf Finland (TV title) (Swedish title)
Garfield - Der Film Germany
Garfield - O Filme Brazil
Garfield ve filmu Czech Republic
Garfield, i tainia Greece
Garfield: La película Argentina
Garfield: The Movie USA (promotional title)
Garfield: il film Italy
Karvinen - elokuva Finland (TV title)
Karvinen elokuva Finland
Kvikmyndin Grettir Iceland (DVD box title)
Pusur Norway
 
http://www.imdb.com/title/tt0356634/

User Rating: 4.8/10   19,883 votes

Duration: 01:20:10.01, start: 0.000000, bitrate: 1221 kb/s
Stream #0.0: Video: mpeg4, yuv420p, 640x352 [PAR 1:1 DAR 20:11], 23.98 tb(r)
Stream #0.1: Audio: mp3, 48000 Hz, stereo, s16, 32 kb/s


Search for DXO for more 